<svg xmlns="http://www.w3.org/2000/svg" width="14" height="15"><path d="M9.143 7.286A2.29 2.29 0 0 0 6.857 5a2.29 2.29 0 0 0-2.286 2.286 2.29 2.29 0 0 0 2.286 2.286 2.29 2.29 0 0 0 2.286-2.286zm1.232 0c0 1.946-1.57 3.518-3.518 3.518S3.34 9.232 3.34 7.286s1.57-3.518 3.518-3.518 3.518 1.57 3.518 3.518zm.964-3.66a.82.82 0 1 1-1.643 0 .82.82 0 1 1 1.643 0zM6.857 1.66c-1 0-3.143-.08-4.045.277a2.19 2.19 0 0 0-.786.518 2.19 2.19 0 0 0-.518.786c-.357.902-.277 3.045-.277 4.045s-.08 3.143.277 4.045a2.19 2.19 0 0 0 .518.786 2.19 2.19 0 0 0 .786.518c.902.357 3.045.277 4.045.277s3.143.08 4.045-.277a2.19 2.19 0 0 0 .786-.518 2.19 2.19 0 0 0 .518-.786c.357-.902.277-3.045.277-4.045s.08-3.143-.277-4.045a2.19 2.19 0 0 0-.518-.786 2.19 2.19 0 0 0-.786-.518C10 1.58 7.857 1.66 6.857 1.66zm6.857 5.625l-.045 2.83c-.054 1.098-.304 2.07-1.107 2.875s-1.777 1.054-2.875 1.107l-2.83.045c-.946 0-1.884.01-2.83-.045-1.098-.054-2.07-.304-2.875-1.107S.098 11.214.045 10.116L0 7.286l.045-2.83c.054-1.098.304-2.07 1.107-2.875S2.93.527 4.027.473L6.857.43l2.83.045c1.098.054 2.07.304 2.875 1.107s1.054 1.777 1.107 2.875l.045 2.83z" fill="#333" fill-rule="nonzero"/></svg>